<?xml version="1.0" standalone="no"?>
<!DOCTYPE svg PUBLIC "-//W3C//DTD SVG 20010904//EN"
 "http://www.w3.org/TR/2001/REC-SVG-20010904/DTD/svg10.dtd">
<svg version="1.0" xmlns="http://www.w3.org/2000/svg"
 width="800.000000pt" height="800.000000pt" viewBox="0 0 800.000000 800.000000"
 preserveAspectRatio="xMidYMid meet">
<metadata>
Created by potrace 1.11, written by Peter Selinger 2001-2013
</metadata>
<g transform="translate(0.000000,800.000000) scale(0.100000,-0.100000)"
fill="#000000" stroke="none">
<path d="M3849 6310 c0 -3 -2 -14 -4 -25 -2 -11 -7 -42 -10 -70 -5 -52 -12
-100 -23 -182 -6 -43 -10 -48 -35 -51 -22 -3 -29 2 -37 25 -6 15 -13 35 -17
43 -3 8 -7 20 -9 25 -1 6 -17 51 -35 102 -30 83 -35 92 -62 97 -17 3 -32 4
-34 2 -5 -5 -9 -30 -17 -97 -4 -31 -8 -65 -10 -75 -2 -11 -7 -47 -11 -81 -6
-55 -10 -62 -32 -68 -14 -3 -28 -3 -32 0 -3 4 -30 68 -61 144 -57 143 -83 191
-95 179 -4 -4 -16 -40 -26 -80 -16 -67 -46 -180 -52 -202 -2 -5 -37 47 -78
116 l-74 126 -50 -5 c-27 -2 -68 -6 -90 -8 -22 -2 -55 -4 -73 -4 l-33 -1 5
-62 c4 -35 9 -103 12 -153 l6 -89 -28 34 c-16 19 -38 44 -49 56 -11 12 -38 42
-60 68 -77 91 -82 95 -94 83 -6 -6 -11 -16 -11 -21 0 -17 -64 -177 -72 -179
-4 -1 -47 38 -97 87 -59 57 -92 84 -95 75 -27 -79 -59 -177 -62 -187 -3 -12
-112 59 -171 111 l-22 19 -15 -52 c-8 -28 -18 -67 -22 -86 -3 -19 -9 -34 -13
-34 -3 0 -41 23 -84 50 -43 28 -82 50 -87 50 -9 0 -14 -14 -26 -70 -12 -61
-23 -83 -37 -72 -18 15 -166 92 -176 92 -4 0 -8 -8 -8 -17 0 -10 -1 -46 -2
-80 l-1 -62 -87 30 c-49 17 -96 35 -105 40 -14 8 -18 2 -24 -38 -9 -62 -9 -63
-42 -52 -109 35 -216 58 -226 49 -8 -5 -16 -6 -22 -1 -5 6 -78 -12 -179 -44
-93 -29 -224 -69 -290 -90 -66 -20 -169 -52 -230 -72 -60 -19 -114 -36 -120
-37 -50 -12 -64 -21 -78 -49 -9 -18 -35 -66 -57 -107 -194 -353 -181 -324
-175 -377 9 -79 14 -124 20 -198 4 -38 8 -81 10 -95 2 -14 7 -59 10 -100 3
-41 8 -86 10 -100 2 -14 7 -59 10 -100 4 -41 8 -88 10 -105 3 -16 7 -59 10
-95 3 -36 8 -78 10 -95 2 -16 7 -61 10 -100 3 -38 8 -83 10 -100 7 -63 15
-142 20 -200 4 -33 8 -76 10 -95 2 -19 7 -62 10 -95 3 -33 8 -78 10 -100 2
-22 7 -69 10 -105 3 -36 8 -87 11 -115 3 -27 7 -64 8 -81 2 -17 64 -138 137
-269 l134 -238 53 -24 c50 -24 52 -26 53 -66 3 -106 33 -186 106 -281 33 -43
51 -55 138 -92 54 -24 131 -49 170 -55 38 -7 72 -13 75 -14 125 -29 109 -30
190 8 l75 35 30 -19 c17 -11 72 -45 122 -77 52 -31 91 -62 89 -69 -3 -6 -8
-28 -12 -47 -6 -33 -2 -40 32 -74 37 -37 42 -39 100 -37 45 1 69 7 92 24 l31
22 117 -88 117 -88 66 -1 c36 -1 154 -5 261 -9 107 -4 209 -8 226 -8 23 1 135
66 437 254 l405 254 -2 33 c-3 38 0 41 79 71 33 13 86 35 119 49 51 23 60 24
70 11 9 -12 33 -15 116 -13 130 2 120 0 117 26 -2 21 1 22 100 23 74 0 103 -3
103 -12 0 -7 33 -22 73 -33 39 -12 92 -28 117 -36 44 -14 46 -14 65 9 l20 25
120 -39 c65 -21 121 -36 123 -34 2 2 3 66 2 142 -6 409 -6 483 0 483 4 0 8
-66 10 -147 1 -82 3 -211 5 -288 2 -77 4 -156 4 -175 1 -33 7 -39 99 -102 115
-79 272 -186 397 -273 257 -177 254 -175 283 -171 15 3 59 8 97 11 39 4 88 8
110 10 22 2 74 6 115 10 76 6 105 9 215 20 55 6 67 12 135 68 41 34 77 64 80
67 3 3 17 16 32 29 l27 24 39 -35 c42 -38 34 -36 147 -25 11 1 36 12 55 23 27
16 39 32 52 74 10 30 14 57 10 60 -4 4 -26 13 -50 20 l-42 13 82 44 c46 25
119 64 163 88 173 93 153 87 268 81 l104 -5 84 116 c59 81 95 121 121 134 71
36 88 21 94 -83 12 -242 65 -405 161 -502 59 -61 81 -66 110 -30 30 38 29 66
-5 106 -60 69 -102 207 -102 327 1 84 15 135 52 184 14 17 27 50 30 72 3 22
64 158 137 306 l130 267 6 153 c3 85 7 215 10 289 3 74 7 198 10 275 9 273 15
432 20 555 3 69 7 197 10 285 8 228 13 287 25 320 11 28 9 32 -24 58 -32 25
-36 34 -36 74 0 39 -13 67 -101 216 -166 281 -170 287 -183 287 -7 0 -179 48
-382 107 -214 61 -390 107 -419 108 -42 2 -128 -13 -242 -40 -19 -4 -27 3 -48
45 -39 77 -65 77 -187 3 -21 -13 -40 -23 -43 -23 -2 0 -16 23 -30 51 -20 39
-30 49 -43 44 -9 -4 -51 -20 -93 -35 l-76 -28 1 39 c2 46 1 48 -40 76 l-31 22
-38 -50 c-33 -43 -42 -50 -69 -47 -29 3 -31 6 -41 60 -7 43 -16 62 -34 75 -24
16 -25 16 -72 -35 -26 -29 -59 -56 -73 -62 -28 -10 -29 -9 -42 70 -4 25 -9 48
-10 53 -1 4 -2 12 -3 17 0 6 -41 -17 -90 -50 -51 -35 -94 -58 -103 -55 -10 4
-16 22 -17 53 -2 26 -3 53 -4 60 0 13 -37 16 -74 6 -14 -4 -35 -28 -55 -63
-46 -82 -46 -82 -74 -69 -23 11 -24 16 -24 103 l0 91 -102 2 -103 1 -94 -140
c-51 -77 -94 -139 -96 -137 -2 2 -5 21 -8 43 -7 47 -27 173 -32 195 -2 8 -4
23 -4 34 -1 16 -7 17 -53 12 -29 -4 -53 -8 -53 -9 -1 -1 -24 -59 -51 -129 -27
-70 -52 -124 -55 -120 -4 4 -27 67 -52 141 -26 77 -51 136 -59 137 -7 1 -19 3
-27 5 -15 4 -26 -26 -73 -201 -11 -41 -24 -82 -29 -92 -11 -21 -29 -24 -29 -5
0 6 -19 73 -43 147 l-43 135 -37 3 c-41 4 -42 1 -52 -98 -4 -39 -17 -75 -47
-128 -67 -117 -68 -116 -117 66 -26 99 -49 164 -61 177 -11 11 -20 17 -21 15z
m798 -2532 c-3 -8 -6 -5 -6 6 -1 11 2 17 5 13 3 -3 4 -12 1 -19z m0 -110 c-3
-7 -5 -2 -5 12 0 14 2 19 5 13 2 -7 2 -19 0 -25z m0 -40 c-3 -8 -6 -5 -6 6 -1
11 2 17 5 13 3 -3 4 -12 1 -19z m0 -40 c-3 -8 -6 -5 -6 6 -1 11 2 17 5 13 3
-3 4 -12 1 -19z m0 -40 c-3 -8 -6 -5 -6 6 -1 11 2 17 5 13 3 -3 4 -12 1 -19z
m7 -54 c3 -8 2 -12 -4 -9 -6 3 -10 10 -10 16 0 14 7 11 14 -7z m0 -40 c3 -8 2
-12 -4 -9 -6 3 -10 10 -10 16 0 14 7 11 14 -7z m0 -54 c-6 -6 -10 -3 -10 10 0
13 4 16 10 10 7 -7 7 -13 0 -20z m8 -262 c2 -126 0 -228 -4 -228 -5 0 -8 107
-7 238 0 130 2 233 4 227 2 -5 5 -112 7 -237z"/>
</g>
</svg>
